<?xml version="1.0" encoding="UTF-8"?>
<svg xmlns="http://www.w3.org/2000/svg" xmlns:xlink="http://www.w3.org/1999/xlink"
  viewBox="0 0 570 328" version="1.1">
  <defs>
    <filter id="alpha" filterUnits="objectBoundingBox" x="0%" y="0%" width="100%" height="100%">
      <feColorMatrix type="matrix" in="SourceGraphic"
        values="0 0 0 0 1 0 0 0 0 1 0 0 0 0 1 0 0 0 1 0" />
    </filter>
    <mask id="mask0">
      <g filter="url(#alpha)">
        <rect x="0" y="0" width="570" height="328"
          style="fill:rgb(0%,0%,0%);fill-opacity:0.101961;stroke:none;" />
      </g>
    </mask>
    <clipPath id="clip1">
      <rect x="0" y="0" width="570" height="328" />
    </clipPath>
    <g id="surface5" clip-path="url(#clip1)">
      <path style=" stroke:none;fill-rule:nonzero;fill:rgb(0%,0%,0%);fill-opacity:1;"
        d="M 249.40625 202.140625 L 25.226562 202.140625 L 25.226562 24.914062 Z M 249.40625 202.140625 " />
    </g>
    <mask id="mask1">
      <g filter="url(#alpha)">
        <rect x="0" y="0" width="570" height="328"
          style="fill:rgb(0%,0%,0%);fill-opacity:0.101961;stroke:none;" />
      </g>
    </mask>
    <clipPath id="clip2">
      <rect x="0" y="0" width="570" height="328" />
    </clipPath>
    <g id="surface8" clip-path="url(#clip2)">
      <path style=" stroke:none;fill-rule:nonzero;fill:rgb(0%,0%,0%);fill-opacity:1;"
        d="M 523.839844 244.300781 L 523.839844 263.386719 C 523.839844 271.175781 517.53125 277.492188 509.746094 277.496094 L 440.328125 277.496094 C 432.542969 277.492188 426.234375 271.175781 426.234375 263.386719 L 426.234375 167.136719 L 484.71875 213.371094 L 485.722656 214.164062 L 496.601562 222.761719 L 497.617188 223.566406 Z M 523.839844 244.300781 " />
    </g>
  </defs>
  <g id="surface1">
    <path
      style=" stroke:none;fill-rule:nonzero;fill:rgb(94.901961%,94.901961%,94.901961%);fill-opacity:1;"
      d="M 153.167969 261.28125 C 153.167969 244.894531 139.894531 231.613281 123.523438 231.613281 C 107.148438 231.613281 93.875 244.894531 93.875 261.28125 C 93.875 277.664062 107.148438 290.949219 123.523438 290.949219 C 139.894531 290.949219 153.167969 277.664062 153.167969 261.28125 Z M 153.167969 261.28125 " />
    <path
      style=" stroke:none;fill-rule:nonzero;fill:rgb(15.686275%,63.921571%,80.000001%);fill-opacity:1;"
      d="M 157.988281 256.9375 C 157.988281 240.554688 144.714844 227.273438 128.34375 227.273438 C 111.96875 227.273438 98.695312 240.554688 98.695312 256.9375 C 98.695312 273.324219 111.96875 286.605469 128.34375 286.605469 C 144.714844 286.605469 157.988281 273.324219 157.988281 256.9375 Z M 157.988281 256.9375 " />
    <path
      style=" stroke:none;fill-rule:nonzero;fill:rgb(24.705882%,23.921569%,33.725491%);fill-opacity:1;"
      d="M 152.21875 224.113281 L 519.039062 224.113281 L 519.039062 225.113281 L 152.21875 225.113281 Z M 342.195312 9.339844 L 211.996094 9.339844 L 211.996094 6.65625 L 152.960938 6.65625 L 152.960938 9.339844 L 22.222656 9.339844 C 17.359375 9.339844 13.417969 13.285156 13.417969 18.152344 L 13.417969 196.550781 C 13.417969 201.417969 17.359375 205.363281 22.222656 205.363281 L 342.195312 205.363281 C 347.058594 205.363281 351.003906 201.417969 351.003906 196.550781 L 351.003906 18.152344 C 351.003906 13.285156 347.0625 9.339844 342.195312 9.339844 Z M 342.195312 9.339844 " />
    <path
      style=" stroke:none;fill-rule:nonzero;fill:rgb(15.686275%,63.921571%,80.000001%);fill-opacity:1;"
      d="M 25.226562 24.914062 L 339.195312 24.914062 L 339.195312 202.140625 L 25.226562 202.140625 Z M 25.226562 24.914062 " />
    <path
      style=" stroke:none;fill-rule:nonzero;fill:rgb(15.686275%,63.921571%,80.000001%);fill-opacity:1;"
      d="M 185.164062 16.859375 C 185.164062 15.078125 183.71875 13.636719 181.941406 13.636719 C 180.164062 13.636719 178.722656 15.078125 178.722656 16.859375 C 178.722656 18.640625 180.164062 20.082031 181.941406 20.082031 C 183.71875 20.082031 185.164062 18.640625 185.164062 16.859375 Z M 185.164062 16.859375 " />
    <use xlink:href="#surface5" mask="url(#mask0)" />
    <path
      style=" stroke:none;fill-rule:nonzero;fill:rgb(94.901961%,94.901961%,94.901961%);fill-opacity:1;"
      d="M 104.53125 158.679688 C 104.53125 142 91.019531 128.480469 74.351562 128.480469 C 57.683594 128.480469 44.171875 142 44.171875 158.679688 C 44.171875 175.359375 57.683594 188.878906 74.351562 188.878906 C 91.019531 188.878906 104.53125 175.359375 104.53125 158.679688 Z M 104.53125 158.679688 " />
    <path
      style=" stroke:none;fill-rule:nonzero;fill:rgb(24.705882%,23.921569%,33.725491%);fill-opacity:1;"
      d="M 255.199219 120.496094 L 284.527344 120.496094 L 284.527344 126.628906 L 255.199219 126.628906 Z M 219.742188 72.75 L 319.984375 72.75 L 319.984375 75.378906 L 219.742188 75.378906 Z M 219.742188 81.074219 L 319.984375 81.074219 L 319.984375 83.699219 L 219.742188 83.699219 Z M 219.742188 89.394531 L 319.984375 89.394531 L 319.984375 92.023438 L 219.742188 92.023438 Z M 219.742188 97.71875 L 319.984375 97.71875 L 319.984375 100.34375 L 219.742188 100.34375 Z M 219.742188 106.039062 L 319.984375 106.039062 L 319.984375 108.667969 L 219.742188 108.667969 Z M 219.742188 106.039062 " />
    <path
      style=" stroke:none;fill-rule:nonzero;fill:rgb(94.901961%,94.901961%,94.901961%);fill-opacity:1;"
      d="M 307.726562 28.511719 L 319.984375 28.511719 L 319.984375 40.773438 L 307.726562 40.773438 Z M 307.726562 28.511719 " />
    <path
      style=" stroke:none;fill-rule:nonzero;fill:rgb(24.705882%,23.921569%,33.725491%);fill-opacity:1;"
      d="M 325.675781 46.46875 L 310.792969 46.46875 L 310.792969 31.578125 L 325.675781 31.578125 Z M 311.441406 45.820312 L 325.027344 45.820312 L 325.027344 32.222656 L 311.441406 32.222656 Z M 359.820312 198.917969 L 329.175781 198.917969 L 329.175781 196.710938 C 329.175781 196.46875 328.980469 196.273438 328.738281 196.273438 L 318.234375 196.273438 C 317.992188 196.273438 317.796875 196.46875 317.796875 196.710938 L 317.796875 198.917969 L 311.230469 198.917969 L 311.230469 196.710938 C 311.230469 196.46875 311.035156 196.273438 310.792969 196.273438 L 300.285156 196.273438 C 300.046875 196.273438 299.851562 196.46875 299.847656 196.710938 L 299.847656 198.917969 L 293.285156 198.917969 L 293.285156 196.710938 C 293.28125 196.46875 293.085938 196.273438 292.84375 196.273438 L 282.339844 196.273438 C 282.097656 196.273438 281.902344 196.46875 281.902344 196.710938 L 281.902344 198.917969 L 275.335938 198.917969 L 275.335938 196.710938 C 275.335938 196.46875 275.140625 196.273438 274.898438 196.273438 L 264.394531 196.273438 C 264.152344 196.273438 263.957031 196.46875 263.953125 196.710938 L 263.953125 198.917969 L 257.390625 198.917969 L 257.390625 196.710938 C 257.390625 196.46875 257.191406 196.273438 256.953125 196.273438 L 246.445312 196.273438 C 246.203125 196.273438 246.007812 196.46875 246.007812 196.710938 L 246.007812 198.917969 L 239.441406 198.917969 L 239.441406 196.710938 C 239.441406 196.46875 239.246094 196.273438 239.003906 196.273438 L 228.5 196.273438 C 228.257812 196.273438 228.0625 196.46875 228.0625 196.710938 L 228.0625 198.917969 L 221.496094 198.917969 L 221.496094 196.710938 C 221.496094 196.46875 221.296875 196.273438 221.058594 196.273438 L 138.761719 196.273438 C 138.519531 196.273438 138.324219 196.46875 138.324219 196.710938 L 138.324219 198.917969 L 131.757812 198.917969 L 131.757812 196.710938 C 131.757812 196.46875 131.5625 196.273438 131.320312 196.273438 L 120.816406 196.273438 C 120.574219 196.273438 120.378906 196.46875 120.378906 196.710938 L 120.378906 198.917969 L 113.8125 198.917969 L 113.8125 196.710938 C 113.8125 196.46875 113.613281 196.273438 113.371094 196.273438 L 102.867188 196.273438 C 102.625 196.273438 102.429688 196.46875 102.429688 196.710938 L 102.429688 198.917969 L 95.863281 198.917969 L 95.863281 196.710938 C 95.863281 196.46875 95.667969 196.273438 95.425781 196.273438 L 84.921875 196.273438 C 84.679688 196.273438 84.484375 196.46875 84.484375 196.710938 L 84.484375 198.917969 L 77.917969 198.917969 L 77.917969 196.710938 C 77.917969 196.46875 77.71875 196.273438 77.480469 196.273438 L 66.972656 196.273438 C 66.730469 196.273438 66.535156 196.46875 66.535156 196.710938 L 66.535156 198.917969 L 59.96875 198.917969 L 59.96875 196.710938 C 59.96875 196.46875 59.773438 196.273438 59.53125 196.273438 L 49.027344 196.273438 C 48.785156 196.273438 48.589844 196.46875 48.589844 196.710938 L 48.589844 198.917969 L 42.023438 198.917969 L 42.023438 196.710938 C 42.023438 196.46875 41.828125 196.273438 41.585938 196.273438 L 31.078125 196.273438 C 30.835938 196.273438 30.640625 196.46875 30.640625 196.710938 L 30.640625 198.917969 L 10.503906 198.917969 C 4.703125 198.917969 0 203.625 0 209.433594 L 0 214.183594 C 0 219.992188 4.703125 224.699219 10.503906 224.699219 L 359.820312 224.699219 C 365.621094 224.699219 370.324219 219.992188 370.324219 214.183594 L 370.324219 209.433594 C 370.324219 203.625 365.621094 198.917969 359.820312 198.917969 Z M 81.65625 177.542969 C 60.652344 177.542969 43.625 160.503906 43.625 139.484375 C 43.625 118.464844 60.652344 101.425781 81.65625 101.425781 C 102.664062 101.425781 119.691406 118.464844 119.691406 139.484375 C 119.667969 160.492188 102.652344 177.519531 81.65625 177.542969 Z M 81.65625 102.425781 C 61.203125 102.425781 44.625 119.019531 44.625 139.484375 C 44.625 159.949219 61.203125 176.539062 81.65625 176.539062 C 102.109375 176.539062 118.691406 159.949219 118.691406 139.484375 C 118.667969 119.027344 102.101562 102.449219 81.65625 102.425781 Z M 293.34375 16.296875 L 420.953125 16.296875 L 420.953125 17.296875 L 293.34375 17.296875 Z M 203.265625 280.699219 L 570.085938 280.699219 L 570.085938 281.699219 L 203.265625 281.699219 Z M 96.421875 326.769531 L 224.03125 326.769531 L 224.03125 327.769531 L 96.421875 327.769531 Z M 96.421875 326.769531 " />
    <path
      style=" stroke:none;fill-rule:nonzero;fill:rgb(15.686275%,63.921571%,80.000001%);fill-opacity:1;"
      d="M 235.707031 275.417969 L 249.71875 275.417969 L 249.71875 289.441406 L 235.707031 289.441406 Z M 235.707031 275.417969 " />
    <path
      style=" stroke:none;fill-rule:nonzero;fill:rgb(24.705882%,23.921569%,33.725491%);fill-opacity:1;"
      d="M 258.226562 281.429688 L 241.210938 281.429688 L 241.210938 264.402344 L 258.226562 264.402344 Z M 241.953125 280.6875 L 257.488281 280.6875 L 257.488281 265.144531 L 241.953125 265.144531 Z M 241.953125 280.6875 " />
    <path
      style=" stroke:none;fill-rule:nonzero;fill:rgb(15.686275%,63.921571%,80.000001%);fill-opacity:1;"
      d="M 398.347656 11.015625 L 412.363281 11.015625 L 412.363281 25.039062 L 398.347656 25.039062 Z M 398.347656 11.015625 " />
    <path
      style=" stroke:none;fill-rule:nonzero;fill:rgb(24.705882%,23.921569%,33.725491%);fill-opacity:1;"
      d="M 420.871094 17.027344 L 403.855469 17.027344 L 403.855469 0 L 420.871094 0 Z M 404.59375 16.285156 L 420.128906 16.285156 L 420.128906 0.738281 L 404.59375 0.738281 Z M 404.59375 16.285156 " />
    <path
      style=" stroke:none;fill-rule:nonzero;fill:rgb(15.686275%,63.921571%,80.000001%);fill-opacity:1;"
      d="M 539.472656 275.417969 L 553.484375 275.417969 L 553.484375 289.441406 L 539.472656 289.441406 Z M 539.472656 275.417969 " />
    <path
      style=" stroke:none;fill-rule:nonzero;fill:rgb(24.705882%,23.921569%,33.725491%);fill-opacity:1;"
      d="M 561.992188 281.429688 L 544.976562 281.429688 L 544.976562 264.402344 L 561.992188 264.402344 Z M 545.71875 280.6875 L 561.253906 280.6875 L 561.253906 265.144531 L 545.71875 265.144531 Z M 529.050781 116.15625 L 527.859375 116.15625 L 527.859375 83.527344 C 527.859375 73.09375 519.410156 64.640625 508.984375 64.640625 L 439.898438 64.640625 C 429.476562 64.640625 421.023438 73.09375 421.023438 83.527344 L 421.023438 262.539062 C 421.023438 272.96875 429.476562 281.425781 439.898438 281.425781 L 508.984375 281.425781 C 519.410156 281.425781 527.859375 272.96875 527.859375 262.539062 L 527.859375 139.382812 L 529.050781 139.382812 Z M 529.050781 116.15625 " />
    <path
      style=" stroke:none;fill-rule:nonzero;fill:rgb(15.686275%,63.921571%,80.000001%);fill-opacity:1;"
      d="M 523.839844 84.636719 L 523.839844 263.386719 C 523.839844 271.175781 517.53125 277.492188 509.746094 277.496094 L 440.328125 277.496094 C 432.542969 277.492188 426.234375 271.175781 426.234375 263.386719 L 426.234375 84.636719 C 426.234375 76.847656 432.542969 70.535156 440.328125 70.535156 L 448.75 70.535156 C 447.90625 72.601562 448.148438 74.949219 449.394531 76.800781 C 450.636719 78.652344 452.71875 79.761719 454.949219 79.761719 L 494.53125 79.761719 C 496.757812 79.761719 498.84375 78.652344 500.085938 76.800781 C 501.328125 74.949219 501.570312 72.601562 500.730469 70.535156 L 509.746094 70.535156 C 517.53125 70.535156 523.839844 76.847656 523.839844 84.636719 Z M 523.839844 84.636719 " />
    <path
      style=" stroke:none;fill-rule:nonzero;fill:rgb(24.705882%,23.921569%,33.725491%);fill-opacity:1;"
      d="M 464.699219 188.394531 L 485.378906 188.394531 L 485.378906 194.527344 L 464.699219 194.527344 Z M 439.695312 140.652344 L 510.378906 140.652344 L 510.378906 143.28125 L 439.695312 143.28125 Z M 439.695312 148.972656 L 510.378906 148.972656 L 510.378906 151.601562 L 439.695312 151.601562 Z M 439.695312 157.296875 L 510.378906 157.296875 L 510.378906 159.925781 L 439.695312 159.925781 Z M 439.695312 165.617188 L 510.378906 165.617188 L 510.378906 168.246094 L 439.695312 168.246094 Z M 439.695312 173.941406 L 510.378906 173.941406 L 510.378906 176.570312 L 439.695312 176.570312 Z M 439.695312 173.941406 " />
    <path
      style=" stroke:none;fill-rule:nonzero;fill:rgb(94.901961%,94.901961%,94.901961%);fill-opacity:1;"
      d="M 465.25 105.75 L 477.507812 105.75 L 477.507812 118.015625 L 465.25 118.015625 Z M 465.25 105.75 " />
    <path
      style=" stroke:none;fill-rule:nonzero;fill:rgb(24.705882%,23.921569%,33.725491%);fill-opacity:1;"
      d="M 469.941406 108.816406 L 469.941406 123.710938 L 484.824219 123.710938 L 484.824219 108.816406 Z M 484.179688 123.0625 L 470.585938 123.0625 L 470.585938 109.464844 L 484.179688 109.464844 Z M 484.179688 123.0625 " />
    <use xlink:href="#surface8" mask="url(#mask1)" />
    <path
      style=" stroke:none;fill-rule:nonzero;fill:rgb(94.901961%,94.901961%,94.901961%);fill-opacity:1;"
      d="M 490.984375 249.734375 C 490.984375 237.601562 481.15625 227.765625 469.03125 227.765625 C 456.90625 227.765625 447.078125 237.601562 447.078125 249.734375 C 447.078125 261.867188 456.90625 271.703125 469.03125 271.703125 C 481.15625 271.703125 490.984375 261.867188 490.984375 249.734375 Z M 490.984375 249.734375 " />
    <path
      style=" stroke:none;fill-rule:nonzero;fill:rgb(24.705882%,23.921569%,33.725491%);fill-opacity:1;"
      d="M 160.226562 327.769531 C 136.179688 327.769531 116.6875 308.265625 116.6875 284.203125 C 116.6875 260.144531 136.179688 240.636719 160.226562 240.636719 C 184.273438 240.636719 203.765625 260.144531 203.765625 284.203125 C 203.738281 308.253906 184.261719 327.742188 160.226562 327.769531 Z M 160.226562 241.640625 C 136.734375 241.640625 117.6875 260.695312 117.6875 284.203125 C 117.6875 307.710938 136.734375 326.769531 160.226562 326.769531 C 183.71875 326.769531 202.761719 307.710938 202.761719 284.203125 C 202.738281 260.707031 183.707031 241.667969 160.226562 241.640625 Z M 475.503906 266.679688 C 460.300781 266.679688 447.976562 254.347656 447.976562 239.136719 C 447.976562 223.925781 460.300781 211.59375 475.503906 211.59375 C 490.703125 211.59375 503.027344 223.925781 503.027344 239.136719 C 503.007812 254.339844 490.695312 266.660156 475.503906 266.679688 Z M 475.503906 212.59375 C 460.855469 212.59375 448.980469 224.476562 448.980469 239.136719 C 448.980469 253.792969 460.855469 265.675781 475.503906 265.675781 C 490.152344 265.675781 502.027344 253.792969 502.027344 239.136719 C 502.007812 224.484375 490.144531 212.613281 475.503906 212.59375 Z M 475.503906 212.59375 " />
  </g>
</svg>
